<svg xmlns="http://www.w3.org/2000/svg" width="36" height="36"><g transform="translate(1.998 -1018.362)"><path fill="#3477e0" d="M0 1029.038h21.485l5.86 7.324-5.86 7.325H0z"/><path style="line-height:normal;text-indent:0;text-align:start;text-decoration-line:none;text-decoration-style:solid;text-decoration-color:#000;text-transform:none;block-progression:tb;isolation:auto;mix-blend-mode:normal" fill="#6ac1f7" fill-rule="evenodd" d="M1.953 1030.99H1.66v.528h.586v-.235h.195v-.586h-.488zm1.074.294h1.172v-.587H3.027zm1.758 0h1.172v-.587H4.785zm1.758 0h1.172v-.587H6.543zm1.758 0h1.172v-.587H8.3zm1.758 0h1.172v-.587h-1.172zm1.757 0h1.172v-.587h-1.172zm1.758 0h1.172v-.587h-1.172zm1.758 0h1.172v-.587h-1.172zm1.758 0h1.172v-.587H17.09zm1.758 0h1.172v-.587h-1.172zm1.485-.04.712.932.464-.356-.708-.933zm-18.673 2.03h.586v-1.171H1.66zm19.742-.634.713.933.464-.357-.713-.927zm1.064 1.401.713.928.464-.356-.708-.928zm-20.806.992h.586v-1.172H1.66zm21.876.405.713.928.464-.352-.713-.933zM1.66 1036.79h.586v-1.171H1.66zm21.783.62.464.352.713-.928-.469-.356zM1.66 1038.55h.586v-1.173H1.66zm20.714.258.468.357.708-.933-.463-.356zm-20.714 1.5h.586v-1.173H1.66zm19.65-.103.463.356.713-.932-.469-.357zm-1.036 1.353.176.132v.337h.205l.088-.113.674-.888-.464-.357zm-18.614.174v.293h.625v-.586h-.04v-.546H1.66zm1.21.293h1.173v-.586H2.87zm1.759 0H5.8v-.586H4.629zm1.758 0h1.171v-.586H6.387zm1.757 0h1.172v-.586H8.144zm1.758 0h1.172v-.586H9.902zm1.758 0h1.172v-.586H11.66zm1.758 0h1.172v-.586h-1.172zm1.758 0h1.172v-.586h-1.172zm1.758 0h1.172v-.586h-1.172zm1.758 0h1.172v-.586h-1.172z" color="#000" font-family="sans-serif" font-weight="400" overflow="visible"/><circle cx="21.486" cy="1036.362" r=".977" fill="#f2f2f2"/><path style="line-height:125%;-inkscape-font-specification:'Bebas Neue Bold'" fill="#fc0" d="M5.752 13.09c-.878 0-1.357.521-1.357 1.431v2.96c0 .91.48 1.43 1.357 1.43.878 0 1.357-.52 1.357-1.43v-2.96c0-.91-.48-1.431-1.357-1.431zm1.94.066v5.69h.894v-2.35h1.152v-.812H8.586v-1.715h1.47v-.813H7.692zm2.792 0v5.69h.895v-2.35h1.154v-.812H11.38v-1.715h1.47v-.813h-2.365zm2.795 0v5.69h2.44v-.813h-1.545v-1.668H15.4v-.812h-1.226v-1.584h1.545v-.813h-2.44zm2.985 0v5.69h.894v-2.317h.309c.406 0 .586.195.586.723v.894c0 .464.031.553.08.7h.912c-.09-.212-.098-.415-.098-.692v-.877c0-.593-.146-1.026-.593-1.213.398-.186.583-.569.583-1.154v-.445c0-.878-.397-1.309-1.324-1.309h-1.35zm-10.512.746c.284 0 .463.156.463.563v3.072c0 .407-.179.56-.463.56-.285 0-.463-.153-.463-.56v-3.072c0-.407.178-.563.463-.563zm11.406.067h.432c.317 0 .455.177.455.584v.562c0 .455-.204.6-.537.6h-.35v-1.746z" font-family="Bebas Neue" font-size="8.129" font-weight="700" letter-spacing="0" transform="translate(0 1020.362)" word-spacing="0"/><path style="line-height:normal;text-indent:0;text-align:start;text-decoration-line:none;text-decoration-style:solid;text-decoration-color:#000;text-transform:none;block-progression:tb;isolation:auto;mix-blend-mode:normal" fill="#fc0" fill-rule="evenodd" d="m24.629 1032.957.616.792s.487-.088.62.148c.133.232.015.37 0 .42-.03.106-.29.447-.728.728a4.99 4.99 0 0 1-1.557.645c-.542.118-1.04.09-1.3-.025-.76-.338-1.268.804-.507 1.143.645.287 1.368.255 2.07.102a6.103 6.103 0 0 0 1.968-.816c.577-.37 1.073-.797 1.255-1.435.092-.32.065-.71-.122-1.025-.547-.949-1.401-.94-2.15-.783z" color="#000" font-family="sans-serif" font-weight="400" overflow="visible"/><path style="line-height:normal;text-indent:0;text-align:start;text-decoration-line:none;text-decoration-style:solid;text-decoration-color:#000;text-transform:none;block-progression:tb;isolation:auto;mix-blend-mode:normal" fill="#fc0" fill-rule="evenodd" d="M28.912 1033.408c-1.01 0-2.363.175-2.363.175a.625.625 0 1 0 .156 1.24s1.354-.165 2.207-.165c.739 0 2.29.405 2.29.405a.627.627 0 1 0 .342-1.206s-1.509-.45-2.632-.45z" color="#000" font-family="sans-serif" font-weight="400" overflow="visible"/><path style="line-height:normal;text-indent:0;text-align:start;text-decoration-line:none;text-decoration-style:solid;text-decoration-color:#000;text-transform:none;block-progression:tb;isolation:auto;mix-blend-mode:normal" fill="#e9eded" d="M0 11.676a1 1 0 0 0-1 1v14.648a1 1 0 0 0 1 1h21.486a1 1 0 0 0 .782-.375l5.859-7.324a1 1 0 0 0 0-1.25l-.018-.021c.299-.023.535-.06.803-.06.186 0 .76.087 1.215.183.445.094.79.183.805.187.441.125.95.053 1.316-.18a1.63 1.63 0 0 0 .691-.943 1.632 1.632 0 0 0-.095-1.166 1.68 1.68 0 0 0-1.026-.842c-.012 0-1.521-.488-2.906-.488-.75 0-1.387.075-1.836.125-.313-.256-.596-.602-.941-.684-.418-.099-.76-.028-1.106.018l-2.761-3.453a1 1 0 0 0-.782-.375H0Zm0 1h21.486l3.375 4.219-.232-.3.166-.107c.722-.15 1.54-.156 2.088.696.388-.046 1.23-.14 2.03-.14 1.123 0 2.632.45 2.632.45a.627.627 0 0 1-.342 1.207s-1.552-.406-2.29-.406c-.688 0-1.535.093-1.903.135a2.014 2.014 0 0 1-.399.652l.735.918-5.86 7.324H0V12.676Zm25.506 4.697a1.19 1.19 0 0 0-.252.014l.225.281a1 1 0 0 0 .171-.174l.092-.01v.004c.005 0 .01.01.014.01l-.131.35.168.21c.019-.03.067-.085.072-.103.015-.05.133-.187 0-.42-.066-.118-.22-.155-.36-.162z" color="#000" font-family="sans-serif" font-weight="400" overflow="visible" transform="translate(0 1016.362)"/></g></svg>